<mxfile host="app.diagrams.net" modified="2023-01-30T08:07:22.255Z" agent="5.0 (Windows NT 10.0; Win64; x64) AppleWebKit/537.36 (KHTML, like Gecko) Chrome/109.0.0.0 Safari/537.36" etag="MZxnCCMEE7IXxFG_cnhU" version="20.8.13" type="github">
  <diagram name="Pagina-1" id="pdfQJMy3Ka2rliBtfhJK">
    <mxGraphModel dx="1434" dy="774" grid="0" gridSize="10" guides="1" tooltips="1" connect="1" arrows="1" fold="1" page="1" pageScale="1" pageWidth="1169" pageHeight="827" math="0" shadow="0">
      <root>
        <mxCell id="0" />
        <mxCell id="1" parent="0" />
        <mxCell id="GxZ5QDoaezFUHM0U7kV0-60" value="" style="rounded=0;whiteSpace=wrap;html=1;sketch=0;hachureGap=4;jiggle=2;curveFitting=1;strokeColor=none;fontFamily=Architects Daughter;fontSource=https%3A%2F%2Ffonts.googleapis.com%2Fcss%3Ffamily%3DArchitects%2BDaughter;fontSize=20;fillColor=#000099;" vertex="1" parent="1">
          <mxGeometry x="249" y="294" width="419" height="263" as="geometry" />
        </mxCell>
        <mxCell id="GxZ5QDoaezFUHM0U7kV0-1" value="UML DIAGRAMS" style="text;html=1;strokeColor=none;fillColor=none;align=center;verticalAlign=middle;whiteSpace=wrap;rounded=0;fontSize=50;fontFamily=JetBrains Mono;fontSource=https%3A%2F%2Ffonts.googleapis.com%2Fcss%3Ffamily%3DJetBrains%2BMono;fontStyle=1;sketch=1;curveFitting=1;jiggle=2;" vertex="1" parent="1">
          <mxGeometry x="723" y="69" width="388" height="30" as="geometry" />
        </mxCell>
        <mxCell id="GxZ5QDoaezFUHM0U7kV0-5" value="List" style="swimlane;fontStyle=0;childLayout=stackLayout;horizontal=1;startSize=30;horizontalStack=0;resizeParent=1;resizeParentMax=0;resizeLast=0;collapsible=1;marginBottom=0;whiteSpace=wrap;html=1;fontFamily=JetBrains Mono;fontSource=https%3A%2F%2Ffonts.googleapis.com%2Fcss%3Ffamily%3DJetBrains%2BMono;fontSize=12;sketch=1;curveFitting=1;jiggle=2;rounded=0;" vertex="1" parent="1">
          <mxGeometry x="739" y="174" width="140" height="120" as="geometry" />
        </mxCell>
        <mxCell id="GxZ5QDoaezFUHM0U7kV0-6" value="Item 1" style="text;strokeColor=none;fillColor=none;align=left;verticalAlign=middle;spacingLeft=4;spacingRight=4;overflow=hidden;points=[[0,0.5],[1,0.5]];portConstraint=eastwest;rotatable=0;whiteSpace=wrap;html=1;fontSize=12;fontFamily=JetBrains Mono;sketch=1;curveFitting=1;jiggle=2;rounded=0;" vertex="1" parent="GxZ5QDoaezFUHM0U7kV0-5">
          <mxGeometry y="30" width="140" height="30" as="geometry" />
        </mxCell>
        <mxCell id="GxZ5QDoaezFUHM0U7kV0-7" value="Item 2" style="text;strokeColor=none;fillColor=none;align=left;verticalAlign=middle;spacingLeft=4;spacingRight=4;overflow=hidden;points=[[0,0.5],[1,0.5]];portConstraint=eastwest;rotatable=0;whiteSpace=wrap;html=1;fontSize=12;fontFamily=JetBrains Mono;sketch=1;curveFitting=1;jiggle=2;rounded=0;" vertex="1" parent="GxZ5QDoaezFUHM0U7kV0-5">
          <mxGeometry y="60" width="140" height="30" as="geometry" />
        </mxCell>
        <mxCell id="GxZ5QDoaezFUHM0U7kV0-8" value="Item 3" style="text;strokeColor=none;fillColor=none;align=left;verticalAlign=middle;spacingLeft=4;spacingRight=4;overflow=hidden;points=[[0,0.5],[1,0.5]];portConstraint=eastwest;rotatable=0;whiteSpace=wrap;html=1;fontSize=12;fontFamily=JetBrains Mono;sketch=1;curveFitting=1;jiggle=2;rounded=0;" vertex="1" parent="GxZ5QDoaezFUHM0U7kV0-5">
          <mxGeometry y="90" width="140" height="30" as="geometry" />
        </mxCell>
        <mxCell id="GxZ5QDoaezFUHM0U7kV0-9" value="List" style="swimlane;fontStyle=0;childLayout=stackLayout;horizontal=1;startSize=30;horizontalStack=0;resizeParent=1;resizeParentMax=0;resizeLast=0;collapsible=1;marginBottom=0;whiteSpace=wrap;html=1;fontFamily=JetBrains Mono;fontSource=https%3A%2F%2Ffonts.googleapis.com%2Fcss%3Ffamily%3DJetBrains%2BMono;fontSize=12;sketch=1;curveFitting=1;jiggle=2;rounded=0;" vertex="1" parent="1">
          <mxGeometry x="929" y="174" width="140" height="120" as="geometry" />
        </mxCell>
        <mxCell id="GxZ5QDoaezFUHM0U7kV0-10" value="Item 1" style="text;strokeColor=none;fillColor=none;align=left;verticalAlign=middle;spacingLeft=4;spacingRight=4;overflow=hidden;points=[[0,0.5],[1,0.5]];portConstraint=eastwest;rotatable=0;whiteSpace=wrap;html=1;fontSize=12;fontFamily=JetBrains Mono;sketch=1;curveFitting=1;jiggle=2;rounded=0;" vertex="1" parent="GxZ5QDoaezFUHM0U7kV0-9">
          <mxGeometry y="30" width="140" height="30" as="geometry" />
        </mxCell>
        <mxCell id="GxZ5QDoaezFUHM0U7kV0-11" value="Item 2" style="text;strokeColor=none;fillColor=none;align=left;verticalAlign=middle;spacingLeft=4;spacingRight=4;overflow=hidden;points=[[0,0.5],[1,0.5]];portConstraint=eastwest;rotatable=0;whiteSpace=wrap;html=1;fontSize=12;fontFamily=JetBrains Mono;sketch=1;curveFitting=1;jiggle=2;rounded=0;" vertex="1" parent="GxZ5QDoaezFUHM0U7kV0-9">
          <mxGeometry y="60" width="140" height="30" as="geometry" />
        </mxCell>
        <mxCell id="GxZ5QDoaezFUHM0U7kV0-12" value="Item 3" style="text;strokeColor=none;fillColor=none;align=left;verticalAlign=middle;spacingLeft=4;spacingRight=4;overflow=hidden;points=[[0,0.5],[1,0.5]];portConstraint=eastwest;rotatable=0;whiteSpace=wrap;html=1;fontSize=12;fontFamily=JetBrains Mono;sketch=1;curveFitting=1;jiggle=2;rounded=0;" vertex="1" parent="GxZ5QDoaezFUHM0U7kV0-9">
          <mxGeometry y="90" width="140" height="30" as="geometry" />
        </mxCell>
        <mxCell id="GxZ5QDoaezFUHM0U7kV0-13" value="" style="edgeStyle=orthogonalEdgeStyle;rounded=0;orthogonalLoop=1;jettySize=auto;html=1;fontFamily=JetBrains Mono;fontSource=https%3A%2F%2Ffonts.googleapis.com%2Fcss%3Ffamily%3DJetBrains%2BMono;fontSize=12;sketch=1;curveFitting=1;jiggle=2;" edge="1" parent="1" source="GxZ5QDoaezFUHM0U7kV0-7" target="GxZ5QDoaezFUHM0U7kV0-12">
          <mxGeometry relative="1" as="geometry" />
        </mxCell>
        <mxCell id="GxZ5QDoaezFUHM0U7kV0-21" value="" style="group;strokeColor=#00FF00;fillColor=#808080;" vertex="1" connectable="0" parent="1">
          <mxGeometry x="257" y="316" width="35.91" height="17" as="geometry" />
        </mxCell>
        <mxCell id="GxZ5QDoaezFUHM0U7kV0-16" value="" style="group;strokeColor=#00FF00;fillColor=#808080;" vertex="1" connectable="0" parent="GxZ5QDoaezFUHM0U7kV0-21">
          <mxGeometry width="16.998816568047335" height="17" as="geometry" />
        </mxCell>
        <mxCell id="GxZ5QDoaezFUHM0U7kV0-14" value="" style="whiteSpace=wrap;html=1;aspect=fixed;rounded=0;hachureGap=4;fontFamily=Architects Daughter;fontSource=https%3A%2F%2Ffonts.googleapis.com%2Fcss%3Ffamily%3DArchitects%2BDaughter;fontSize=20;strokeColor=#00FF00;fillColor=#808080;" vertex="1" parent="GxZ5QDoaezFUHM0U7kV0-16">
          <mxGeometry width="16.998388558767243" height="16.998388558767243" as="geometry" />
        </mxCell>
        <mxCell id="GxZ5QDoaezFUHM0U7kV0-15" value="" style="whiteSpace=wrap;html=1;aspect=fixed;rounded=0;hachureGap=4;fontFamily=Architects Daughter;fontSource=https%3A%2F%2Ffonts.googleapis.com%2Fcss%3Ffamily%3DArchitects%2BDaughter;fontSize=20;strokeColor=#00FF00;fillColor=#808080;" vertex="1" parent="GxZ5QDoaezFUHM0U7kV0-16">
          <mxGeometry x="2.124852071005917" y="2.125" width="12.961271276060021" height="12.961271276060021" as="geometry" />
        </mxCell>
        <mxCell id="GxZ5QDoaezFUHM0U7kV0-17" value="" style="group;strokeColor=#00FF00;fillColor=#808080;" vertex="1" connectable="0" parent="GxZ5QDoaezFUHM0U7kV0-21">
          <mxGeometry x="18.91118343195266" width="16.998816568047335" height="17" as="geometry" />
        </mxCell>
        <mxCell id="GxZ5QDoaezFUHM0U7kV0-18" value="" style="whiteSpace=wrap;html=1;aspect=fixed;rounded=0;hachureGap=4;fontFamily=Architects Daughter;fontSource=https%3A%2F%2Ffonts.googleapis.com%2Fcss%3Ffamily%3DArchitects%2BDaughter;fontSize=20;strokeColor=#00FF00;fillColor=#808080;" vertex="1" parent="GxZ5QDoaezFUHM0U7kV0-17">
          <mxGeometry width="16.998388558767243" height="16.998388558767243" as="geometry" />
        </mxCell>
        <mxCell id="GxZ5QDoaezFUHM0U7kV0-19" value="" style="whiteSpace=wrap;html=1;aspect=fixed;rounded=0;hachureGap=4;fontFamily=Architects Daughter;fontSource=https%3A%2F%2Ffonts.googleapis.com%2Fcss%3Ffamily%3DArchitects%2BDaughter;fontSize=20;strokeColor=#00FF00;fillColor=#808080;" vertex="1" parent="GxZ5QDoaezFUHM0U7kV0-17">
          <mxGeometry x="2.124852071005917" y="2.125" width="12.961271276060021" height="12.961271276060021" as="geometry" />
        </mxCell>
        <mxCell id="GxZ5QDoaezFUHM0U7kV0-22" value="" style="group;strokeColor=#00FF00;fillColor=#808080;" vertex="1" connectable="0" parent="1">
          <mxGeometry x="257" y="333" width="35.91" height="17" as="geometry" />
        </mxCell>
        <mxCell id="GxZ5QDoaezFUHM0U7kV0-23" value="" style="group;strokeColor=#00FF00;fillColor=#808080;" vertex="1" connectable="0" parent="GxZ5QDoaezFUHM0U7kV0-22">
          <mxGeometry width="16.998816568047335" height="17" as="geometry" />
        </mxCell>
        <mxCell id="GxZ5QDoaezFUHM0U7kV0-24" value="" style="whiteSpace=wrap;html=1;aspect=fixed;rounded=0;hachureGap=4;fontFamily=Architects Daughter;fontSource=https%3A%2F%2Ffonts.googleapis.com%2Fcss%3Ffamily%3DArchitects%2BDaughter;fontSize=20;strokeColor=#00FF00;fillColor=#808080;" vertex="1" parent="GxZ5QDoaezFUHM0U7kV0-23">
          <mxGeometry width="16.998388558767243" height="16.998388558767243" as="geometry" />
        </mxCell>
        <mxCell id="GxZ5QDoaezFUHM0U7kV0-25" value="" style="whiteSpace=wrap;html=1;aspect=fixed;rounded=0;hachureGap=4;fontFamily=Architects Daughter;fontSource=https%3A%2F%2Ffonts.googleapis.com%2Fcss%3Ffamily%3DArchitects%2BDaughter;fontSize=20;strokeColor=#00FF00;fillColor=#808080;" vertex="1" parent="GxZ5QDoaezFUHM0U7kV0-23">
          <mxGeometry x="2.124852071005917" y="2.125" width="12.961271276060021" height="12.961271276060021" as="geometry" />
        </mxCell>
        <mxCell id="GxZ5QDoaezFUHM0U7kV0-26" value="" style="group;strokeColor=#00FF00;fillColor=#808080;" vertex="1" connectable="0" parent="GxZ5QDoaezFUHM0U7kV0-22">
          <mxGeometry x="18.91118343195266" width="16.998816568047335" height="17" as="geometry" />
        </mxCell>
        <mxCell id="GxZ5QDoaezFUHM0U7kV0-27" value="" style="whiteSpace=wrap;html=1;aspect=fixed;rounded=0;hachureGap=4;fontFamily=Architects Daughter;fontSource=https%3A%2F%2Ffonts.googleapis.com%2Fcss%3Ffamily%3DArchitects%2BDaughter;fontSize=20;strokeColor=#00FF00;fillColor=#808080;" vertex="1" parent="GxZ5QDoaezFUHM0U7kV0-26">
          <mxGeometry width="16.998388558767243" height="16.998388558767243" as="geometry" />
        </mxCell>
        <mxCell id="GxZ5QDoaezFUHM0U7kV0-28" value="" style="whiteSpace=wrap;html=1;aspect=fixed;rounded=0;hachureGap=4;fontFamily=Architects Daughter;fontSource=https%3A%2F%2Ffonts.googleapis.com%2Fcss%3Ffamily%3DArchitects%2BDaughter;fontSize=20;strokeColor=#00FF00;fillColor=#808080;" vertex="1" parent="GxZ5QDoaezFUHM0U7kV0-26">
          <mxGeometry x="2.124852071005917" y="2.125" width="12.961271276060021" height="12.961271276060021" as="geometry" />
        </mxCell>
        <mxCell id="GxZ5QDoaezFUHM0U7kV0-29" value="" style="group;strokeColor=#00FF00;fillColor=#808080;" vertex="1" connectable="0" parent="1">
          <mxGeometry x="257" y="350" width="35.91" height="17" as="geometry" />
        </mxCell>
        <mxCell id="GxZ5QDoaezFUHM0U7kV0-30" value="" style="group;strokeColor=#00FF00;fillColor=#808080;" vertex="1" connectable="0" parent="GxZ5QDoaezFUHM0U7kV0-29">
          <mxGeometry width="16.998816568047335" height="17" as="geometry" />
        </mxCell>
        <mxCell id="GxZ5QDoaezFUHM0U7kV0-31" value="" style="whiteSpace=wrap;html=1;aspect=fixed;rounded=0;hachureGap=4;fontFamily=Architects Daughter;fontSource=https%3A%2F%2Ffonts.googleapis.com%2Fcss%3Ffamily%3DArchitects%2BDaughter;fontSize=20;strokeColor=#00FF00;fillColor=#808080;" vertex="1" parent="GxZ5QDoaezFUHM0U7kV0-30">
          <mxGeometry width="16.998388558767243" height="16.998388558767243" as="geometry" />
        </mxCell>
        <mxCell id="GxZ5QDoaezFUHM0U7kV0-32" value="" style="whiteSpace=wrap;html=1;aspect=fixed;rounded=0;hachureGap=4;fontFamily=Architects Daughter;fontSource=https%3A%2F%2Ffonts.googleapis.com%2Fcss%3Ffamily%3DArchitects%2BDaughter;fontSize=20;strokeColor=#00FF00;fillColor=#808080;" vertex="1" parent="GxZ5QDoaezFUHM0U7kV0-30">
          <mxGeometry x="2.124852071005917" y="2.125" width="12.961271276060021" height="12.961271276060021" as="geometry" />
        </mxCell>
        <mxCell id="GxZ5QDoaezFUHM0U7kV0-33" value="" style="group;strokeColor=#00FF00;fillColor=#808080;" vertex="1" connectable="0" parent="GxZ5QDoaezFUHM0U7kV0-29">
          <mxGeometry x="18.91118343195266" width="16.998816568047335" height="17" as="geometry" />
        </mxCell>
        <mxCell id="GxZ5QDoaezFUHM0U7kV0-34" value="" style="whiteSpace=wrap;html=1;aspect=fixed;rounded=0;hachureGap=4;fontFamily=Architects Daughter;fontSource=https%3A%2F%2Ffonts.googleapis.com%2Fcss%3Ffamily%3DArchitects%2BDaughter;fontSize=20;strokeColor=#00FF00;fillColor=#808080;" vertex="1" parent="GxZ5QDoaezFUHM0U7kV0-33">
          <mxGeometry width="16.998388558767243" height="16.998388558767243" as="geometry" />
        </mxCell>
        <mxCell id="GxZ5QDoaezFUHM0U7kV0-35" value="" style="whiteSpace=wrap;html=1;aspect=fixed;rounded=0;hachureGap=4;fontFamily=Architects Daughter;fontSource=https%3A%2F%2Ffonts.googleapis.com%2Fcss%3Ffamily%3DArchitects%2BDaughter;fontSize=20;strokeColor=#00FF00;fillColor=#808080;" vertex="1" parent="GxZ5QDoaezFUHM0U7kV0-33">
          <mxGeometry x="2.124852071005917" y="2.125" width="12.961271276060021" height="12.961271276060021" as="geometry" />
        </mxCell>
        <mxCell id="GxZ5QDoaezFUHM0U7kV0-36" value="" style="group;strokeColor=#00FF00;fillColor=#808080;" vertex="1" connectable="0" parent="1">
          <mxGeometry x="257" y="367" width="35.91" height="17" as="geometry" />
        </mxCell>
        <mxCell id="GxZ5QDoaezFUHM0U7kV0-37" value="" style="group;strokeColor=#00FF00;fillColor=#808080;" vertex="1" connectable="0" parent="GxZ5QDoaezFUHM0U7kV0-36">
          <mxGeometry width="16.998816568047335" height="17" as="geometry" />
        </mxCell>
        <mxCell id="GxZ5QDoaezFUHM0U7kV0-38" value="" style="whiteSpace=wrap;html=1;aspect=fixed;rounded=0;hachureGap=4;fontFamily=Architects Daughter;fontSource=https%3A%2F%2Ffonts.googleapis.com%2Fcss%3Ffamily%3DArchitects%2BDaughter;fontSize=20;strokeColor=#00FF00;fillColor=#808080;" vertex="1" parent="GxZ5QDoaezFUHM0U7kV0-37">
          <mxGeometry width="16.998388558767243" height="16.998388558767243" as="geometry" />
        </mxCell>
        <mxCell id="GxZ5QDoaezFUHM0U7kV0-39" value="" style="whiteSpace=wrap;html=1;aspect=fixed;rounded=0;hachureGap=4;fontFamily=Architects Daughter;fontSource=https%3A%2F%2Ffonts.googleapis.com%2Fcss%3Ffamily%3DArchitects%2BDaughter;fontSize=20;strokeColor=#00FF00;fillColor=#808080;" vertex="1" parent="GxZ5QDoaezFUHM0U7kV0-37">
          <mxGeometry x="2.124852071005917" y="2.125" width="12.961271276060021" height="12.961271276060021" as="geometry" />
        </mxCell>
        <mxCell id="GxZ5QDoaezFUHM0U7kV0-40" value="" style="group;strokeColor=#00FF00;fillColor=#808080;" vertex="1" connectable="0" parent="GxZ5QDoaezFUHM0U7kV0-36">
          <mxGeometry x="18.91118343195266" width="16.998816568047335" height="17" as="geometry" />
        </mxCell>
        <mxCell id="GxZ5QDoaezFUHM0U7kV0-41" value="" style="whiteSpace=wrap;html=1;aspect=fixed;rounded=0;hachureGap=4;fontFamily=Architects Daughter;fontSource=https%3A%2F%2Ffonts.googleapis.com%2Fcss%3Ffamily%3DArchitects%2BDaughter;fontSize=20;strokeColor=#00FF00;fillColor=#808080;" vertex="1" parent="GxZ5QDoaezFUHM0U7kV0-40">
          <mxGeometry width="16.998388558767243" height="16.998388558767243" as="geometry" />
        </mxCell>
        <mxCell id="GxZ5QDoaezFUHM0U7kV0-42" value="" style="whiteSpace=wrap;html=1;aspect=fixed;rounded=0;hachureGap=4;fontFamily=Architects Daughter;fontSource=https%3A%2F%2Ffonts.googleapis.com%2Fcss%3Ffamily%3DArchitects%2BDaughter;fontSize=20;strokeColor=#00FF00;fillColor=#808080;" vertex="1" parent="GxZ5QDoaezFUHM0U7kV0-40">
          <mxGeometry x="2.124852071005917" y="2.125" width="12.961271276060021" height="12.961271276060021" as="geometry" />
        </mxCell>
        <mxCell id="GxZ5QDoaezFUHM0U7kV0-43" value="" style="group;strokeColor=#00FF00;fillColor=#808080;" vertex="1" connectable="0" parent="1">
          <mxGeometry x="257" y="387" width="35.91" height="17" as="geometry" />
        </mxCell>
        <mxCell id="GxZ5QDoaezFUHM0U7kV0-44" value="" style="group;strokeColor=#00FF00;fillColor=#808080;" vertex="1" connectable="0" parent="GxZ5QDoaezFUHM0U7kV0-43">
          <mxGeometry width="16.998816568047335" height="17" as="geometry" />
        </mxCell>
        <mxCell id="GxZ5QDoaezFUHM0U7kV0-45" value="" style="whiteSpace=wrap;html=1;aspect=fixed;rounded=0;hachureGap=4;fontFamily=Architects Daughter;fontSource=https%3A%2F%2Ffonts.googleapis.com%2Fcss%3Ffamily%3DArchitects%2BDaughter;fontSize=20;strokeColor=#00FF00;fillColor=#808080;" vertex="1" parent="GxZ5QDoaezFUHM0U7kV0-44">
          <mxGeometry width="16.998388558767243" height="16.998388558767243" as="geometry" />
        </mxCell>
        <mxCell id="GxZ5QDoaezFUHM0U7kV0-46" value="" style="whiteSpace=wrap;html=1;aspect=fixed;rounded=0;hachureGap=4;fontFamily=Architects Daughter;fontSource=https%3A%2F%2Ffonts.googleapis.com%2Fcss%3Ffamily%3DArchitects%2BDaughter;fontSize=20;strokeColor=#00FF00;fillColor=#808080;" vertex="1" parent="GxZ5QDoaezFUHM0U7kV0-44">
          <mxGeometry x="2.124852071005917" y="2.125" width="12.961271276060021" height="12.961271276060021" as="geometry" />
        </mxCell>
        <mxCell id="GxZ5QDoaezFUHM0U7kV0-47" value="" style="group;strokeColor=#00FF00;fillColor=#808080;" vertex="1" connectable="0" parent="GxZ5QDoaezFUHM0U7kV0-43">
          <mxGeometry x="18.91118343195266" width="16.998816568047335" height="17" as="geometry" />
        </mxCell>
        <mxCell id="GxZ5QDoaezFUHM0U7kV0-48" value="" style="whiteSpace=wrap;html=1;aspect=fixed;rounded=0;hachureGap=4;fontFamily=Architects Daughter;fontSource=https%3A%2F%2Ffonts.googleapis.com%2Fcss%3Ffamily%3DArchitects%2BDaughter;fontSize=20;strokeColor=#00FF00;fillColor=#808080;" vertex="1" parent="GxZ5QDoaezFUHM0U7kV0-47">
          <mxGeometry width="16.998388558767243" height="16.998388558767243" as="geometry" />
        </mxCell>
        <mxCell id="GxZ5QDoaezFUHM0U7kV0-49" value="" style="whiteSpace=wrap;html=1;aspect=fixed;rounded=0;hachureGap=4;fontFamily=Architects Daughter;fontSource=https%3A%2F%2Ffonts.googleapis.com%2Fcss%3Ffamily%3DArchitects%2BDaughter;fontSize=20;strokeColor=#00FF00;fillColor=#808080;" vertex="1" parent="GxZ5QDoaezFUHM0U7kV0-47">
          <mxGeometry x="2.124852071005917" y="2.125" width="12.961271276060021" height="12.961271276060021" as="geometry" />
        </mxCell>
        <mxCell id="GxZ5QDoaezFUHM0U7kV0-50" value="" style="group;strokeColor=#00FF00;fillColor=#808080;" vertex="1" connectable="0" parent="1">
          <mxGeometry x="257" y="404" width="35.91" height="17" as="geometry" />
        </mxCell>
        <mxCell id="GxZ5QDoaezFUHM0U7kV0-51" value="" style="group;strokeColor=#00FF00;fillColor=#808080;" vertex="1" connectable="0" parent="GxZ5QDoaezFUHM0U7kV0-50">
          <mxGeometry width="16.998816568047335" height="17" as="geometry" />
        </mxCell>
        <mxCell id="GxZ5QDoaezFUHM0U7kV0-52" value="" style="whiteSpace=wrap;html=1;aspect=fixed;rounded=0;hachureGap=4;fontFamily=Architects Daughter;fontSource=https%3A%2F%2Ffonts.googleapis.com%2Fcss%3Ffamily%3DArchitects%2BDaughter;fontSize=20;strokeColor=#00FF00;fillColor=#808080;" vertex="1" parent="GxZ5QDoaezFUHM0U7kV0-51">
          <mxGeometry width="16.998388558767243" height="16.998388558767243" as="geometry" />
        </mxCell>
        <mxCell id="GxZ5QDoaezFUHM0U7kV0-53" value="" style="whiteSpace=wrap;html=1;aspect=fixed;rounded=0;hachureGap=4;fontFamily=Architects Daughter;fontSource=https%3A%2F%2Ffonts.googleapis.com%2Fcss%3Ffamily%3DArchitects%2BDaughter;fontSize=20;strokeColor=#00FF00;fillColor=#808080;" vertex="1" parent="GxZ5QDoaezFUHM0U7kV0-51">
          <mxGeometry x="2.124852071005917" y="2.125" width="12.961271276060021" height="12.961271276060021" as="geometry" />
        </mxCell>
        <mxCell id="GxZ5QDoaezFUHM0U7kV0-54" value="" style="group;strokeColor=#00FF00;fillColor=#808080;" vertex="1" connectable="0" parent="GxZ5QDoaezFUHM0U7kV0-50">
          <mxGeometry x="18.91118343195266" width="16.998816568047335" height="17" as="geometry" />
        </mxCell>
        <mxCell id="GxZ5QDoaezFUHM0U7kV0-55" value="" style="whiteSpace=wrap;html=1;aspect=fixed;rounded=0;hachureGap=4;fontFamily=Architects Daughter;fontSource=https%3A%2F%2Ffonts.googleapis.com%2Fcss%3Ffamily%3DArchitects%2BDaughter;fontSize=20;strokeColor=#00FF00;fillColor=#808080;" vertex="1" parent="GxZ5QDoaezFUHM0U7kV0-54">
          <mxGeometry width="16.998388558767243" height="16.998388558767243" as="geometry" />
        </mxCell>
        <mxCell id="GxZ5QDoaezFUHM0U7kV0-56" value="" style="whiteSpace=wrap;html=1;aspect=fixed;rounded=0;hachureGap=4;fontFamily=Architects Daughter;fontSource=https%3A%2F%2Ffonts.googleapis.com%2Fcss%3Ffamily%3DArchitects%2BDaughter;fontSize=20;strokeColor=#00FF00;fillColor=#808080;" vertex="1" parent="GxZ5QDoaezFUHM0U7kV0-54">
          <mxGeometry x="2.124852071005917" y="2.125" width="12.961271276060021" height="12.961271276060021" as="geometry" />
        </mxCell>
      </root>
    </mxGraphModel>
  </diagram>
</mxfile>
